#!OML:ASF H:\ManfredETheater\Project 1\Capture day 1\Session 1\subject.ASF
:FULLY-SPECIFIED
:DEGREES
105
root 3.60066 23.4327 0.533792 -188.785 -23.9283 -172.119
lowerback 15.679 2.79902 7.00045
upperback 0.802309 4.89686 1.79985
thorax -7.49663 2.07488 -3.05697
lowerneck -19.7955 -2.95103 -3.30842
upperneck 12.0292 -3.11977 0.195351
head 6.95773 -1.64086 0.234394
rclavicle -3.07247e-014 -1.26228e-014
rhumerus -24.5418 31.3634 -65.6088
rradius 109.966
rwrist -1.3717
rhand -23.5336 8.40802
rfingers 7.12502
rthumb 2.92776 -21.5516
lclavicle -3.07247e-014 -1.26228e-014
lhumerus -50.5555 -6.61685 24.7149
lradius 34.5799
lwrist 4.22892
lhand -30.6522 -0.834955
lfingers 7.12502
lthumb -3.94724 29.1082
rfemur 9.2221 -6.29095 26.5292
rtibia 65.7024
rfoot 19.5205 -10.0327
rtoes -5.79684
lfemur -65.8139 0.505351 -5.57837
ltibia 41.2843
lfoot 0.108985 -1.11229
ltoes -9.87336
106
root 3.4146 23.4379 0.135172 -189.189 -23.9559 -172.173
lowerback 15.7905 2.76241 6.76005
upperback 0.83615 4.81302 1.80656
thorax -7.55035 2.0405 -2.90555
lowerneck -19.7218 -2.90055 -3.31663
upperneck 12.2417 -3.05995 0.247942
head 7.01536 -1.60856 0.259367
rclavicle -2.65937e-014 1.12313e-014
rhumerus -26.1511 31.0081 -64.8618
rradius 110.245
rwrist -1.49353
rhand -23.2775 8.2518
rfingers 7.12502
rthumb 3.17509 -21.7043
lclavicle -2.65937e-014 1.12313e-014
lhumerus -51.0636 -6.73155 23.8925
lradius 33.6301
lwrist 3.86456
lhand -30.6041 0.104725
lfingers 7.12502
lthumb -3.90082 30.0488
rfemur 7.95152 -6.86884 26.0262
rtibia 69.365
rfoot 18.7061 -10.0288
rtoes -5.47816
lfemur -64.4232 0.312331 -5.8875
ltibia 40.5789
lfoot 0.472728 -1.09734
ltoes -10.1277
107
root 3.22763 23.43 -0.262692 -189.597 -23.9856 -172.243
lowerback 15.9413 2.71979 6.50912
upperback 0.867843 4.72183 1.8132
thorax -7.6291 2.0017 -2.74888
lowerneck -19.6703 -2.84334 -3.31032
upperneck 12.4625 -2.99373 0.295374
head 7.07896 -1.57312 0.280816
rclavicle 2.78982e-014 6.65929e-015
rhumerus -27.7697 30.6791 -64.0486
rradius 110.503
rwrist -1.6252
rhand -23.0366 8.10742
rfingers 7.12502
rthumb 3.40771 -21.8451
lclavicle 2.78982e-014 6.65929e-015
lhumerus -51.6448 -6.91557 23.1623
lradius 32.8342
lwrist 3.43119
lhand -30.5708 1.09178
lfingers 7.12502
lthumb -3.86868 31.0364
rfemur 6.69686 -7.48933 25.4619
rtibia 72.8296
rfoot 17.9735 -9.96469
rtoes -5.05192
lfemur -62.9972 0.0816441 -6.16408
ltibia 39.9224
lfoot 0.89517 -1.15552
ltoes -10.4962
108
root 3.03956 23.4095 -0.659673 -190.004 -24.0064 -172.324
lowerback 16.1205 2.67561 6.26006
upperback 0.897497 4.63 1.8173
thorax -7.72471 1.96175 -2.59692
lowerneck -19.6357 -2.78252 -3.29232
upperneck 12.6832 -2.92521 0.340513
head 7.14502 -1.53629 0.299796
rclavicle -2.57178e-014 -7.05686e-015
rhumerus -29.3908 30.3682 -63.1715
rradius 110.734
rwrist -1.77353
rhand -22.7907 7.99664
rfingers 7.12502
rthumb 3.64518 -21.9519
lclavicle -2.57178e-014 -7.05686e-015
lhumerus -52.2875 -7.18798 22.5445
lradius 32.1816
lwrist 2.9726
lhand -30.5507 2.12093
lfingers 7.12502
lthumb -3.84927 32.0659
rfemur 5.45255 -8.13708 24.8481
rtibia 76.0728
rfoot 17.2812 -9.84204
rtoes -4.63789
lfemur -61.5346 -0.192978 -6.38747
ltibia 39.2916
lfoot 1.36786 -1.25821
ltoes -10.9003
109
root 2.85043 23.3767 -1.05571 -190.407 -24.0194 -172.414
lowerback 16.3052 2.63044 6.01298
upperback 0.937529 4.53531 1.82467
thorax -7.81164 1.92066 -2.44116
lowerneck -19.6236 -2.71892 -3.27817
upperneck 12.8927 -2.85199 0.389087
head 7.21122 -1.49705 0.320976
rclavicle 1.02188e-013 1.93815e-014
rhumerus -30.9845 30.0773 -62.2154
rradius 110.932
rwrist -1.92016
rhand -22.556 7.86536
rfingers 7.12502
rthumb 3.87185 -22.0792
lclavicle 1.02188e-013 1.93815e-014
lhumerus -52.984 -7.53019 22.0605
lradius 31.6542
lwrist 2.52997
lhand -30.521 3.14706
lfingers 7.12502
lthumb -3.82063 33.0926
rfemur 4.21506 -8.8088 24.1953
rtibia 79.0735
rfoot 16.5929 -9.66943
rtoes -4.28251
lfemur -60.0361 -0.517813 -6.55619
ltibia 38.6659
lfoot 1.88545 -1.38396
ltoes -11.2853
110
root 2.65985 23.3319 -1.45094 -190.789 -24.0253 -172.524
lowerback 16.4805 2.58778 5.76179
upperback 0.982893 4.44074 1.82988
thorax -7.88671 1.88037 -2.28394
lowerneck -19.612 -2.65281 -3.26023
upperneck 13.0796 -2.7754 0.429821
head 7.26984 -1.45672 0.339609
rclavicle 4.60124e-014 1.94809e-014
rhumerus -32.5663 29.798 -61.1928
rradius 111.098
rwrist -2.05686
rhand -22.3 7.75279
rfingers 7.12502
rthumb 4.11911 -22.1871
lclavicle 4.60124e-014 1.94809e-014
lhumerus -53.7269 -7.9605 21.729
lradius 31.2366
lwrist 2.16095
lhand -30.4805 4.10095
lfingers 7.12502
lthumb -3.78152 34.0471
rfemur 2.97773 -9.49115 23.5
rtibia 81.8129
rfoot 15.867 -9.455
rtoes -3.99731
lfemur -58.5076 -0.89691 -6.68723
ltibia 38.0305
lfoot 2.44436 -1.51138
ltoes -11.6515
111
root 2.46756 23.2756 -1.84581 -191.139 -24.0287 -172.67
lowerback 16.6195 2.55168 5.49042
upperback 1.04291 4.34635 1.83564
thorax -7.92632 1.8424 -2.11174
lowerneck -19.6142 -2.58785 -3.256
upperneck 13.2513 -2.69571 0.467016
head 7.32592 -1.41592 0.359677
rclavicle -1.08555e-014 -1.19271e-015
rhumerus -34.1186 29.5258 -60.0913
rradius 111.226
rwrist -2.17657
rhand -22.0313 7.64255
rfingers 7.12502
rthumb 4.37852 -22.2922
lclavicle -1.08555e-014 -1.19271e-015
lhumerus -54.5209 -8.49302 21.5938
lradius 30.9311
lwrist 1.94236
lhand -30.4288 4.93932
lfingers 7.12502
lthumb -3.73151 34.8864
rfemur 1.74167 -10.1759 22.7592
rtibia 84.2741
rfoot 15.0784 -9.19516
rtoes -3.80088
lfemur -56.9529 -1.33008 -6.80763
ltibia 37.3751
lfoot 3.04128 -1.62429
ltoes -11.9933
112
root 2.2735 23.2076 -2.24042 -191.452 -24.0227 -172.845
lowerback 16.7197 2.52631 5.20492
upperback 1.11012 4.25987 1.84302
thorax -7.93621 1.80996 -1.92877
lowerneck -19.6123 -2.52825 -3.26302
upperneck 13.4023 -2.61839 0.491819
head 7.37453 -1.37806 0.377428
rclavicle -1.39044e-013 -2.08724e-014
rhumerus -35.6535 29.2544 -58.9209
rradius 111.314
rwrist -2.2759
rhand -21.7376 7.53583
rfingers 7.12502
rthumb 4.66214 -22.3929
lclavicle -1.39044e-013 -2.08724e-014
lhumerus -55.3588 -9.13064 21.6657
lradius 30.7247
lwrist 1.89749
lhand -30.3613 5.62827
lfingers 7.12502
lthumb -3.6664 35.5765
rfemur 0.496012 -10.8444 21.9979
rtibia 86.4474
rfoot 14.2085 -8.89754
rtoes -3.7112
lfemur -55.3828 -1.80699 -6.91933
ltibia 36.6998
lfoot 3.67247 -1.70587
ltoes -12.2859
113
root 2.0775 23.1279 -2.63511 -191.721 -24.005 -173.056
lowerback 16.7807 2.5121 4.90309
upperback 1.17888 4.18245 1.85007
thorax -7.92251 1.78341 -1.73658
lowerneck -19.6097 -2.47306 -3.28916
upperneck 13.5465 -2.54121 0.512104
head 7.42103 -1.3418 0.396858
rclavicle 3.69398e-014 -7.05686e-015
rhumerus -37.1746 28.9908 -57.6943
rradius 111.357
rwrist -2.3627
rhand -21.4214 7.44533
rfingers 7.12502
rthumb 4.96748 -22.4764
lclavicle 3.69398e-014 -7.05686e-015
lhumerus -56.2451 -9.86462 21.9403
lradius 30.6056
lwrist 2.01708
lhand -30.2775 6.10549
lfingers 7.12502
lthumb -3.58547 36.0551
rfemur -0.76556 -11.4825 21.2272
rtibia 88.325
rfoot 13.2659 -8.56134
rtoes -3.74597
lfemur -53.805 -2.32079 -7.03672
ltibia 36.0086
lfoot 4.33709 -1.74308
ltoes -12.5503
114
root 1.88008 23.0356 -3.03056 -191.971 -23.9516 -173.262
lowerback 16.8056 2.51455 4.61282
upperback 1.25145 4.12734 1.87089
thorax -7.88288 1.76793 -1.53887
lowerneck -19.5969 -2.42351 -3.32725
upperneck 13.6797 -2.46635 0.517819
head 7.46221 -1.30884 0.413336
rclavicle 3.45388e-015 -1.60022e-014
rhumerus -38.6782 28.7337 -56.4144
rradius 111.349
rwrist -2.43897
rhand -21.0904 7.36406
rfingers 7.12502
rthumb 5.28704 -22.55
lclavicle 3.45388e-015 -1.60022e-014
lhumerus -57.1683 -10.6613 22.401
lradius 30.559
lwrist 2.24413
lhand -30.1667 6.37484
lfingers 7.12502
lthumb -3.47847 36.3262
rfemur -2.03917 -12.0701 20.5183
rtibia 89.9029
rfoot 12.2576 -8.19385
rtoes -3.98464
lfemur -52.2203 -2.84304 -7.1244
ltibia 35.3131
lfoot 5.03223 -1.73351
ltoes -12.832
115
root 1.68119 22.931 -3.42701 -192.196 -23.8732 -173.47
lowerback 16.8038 2.52758 4.33285
upperback 1.31535 4.08825 1.89826
thorax -7.83642 1.76004 -1.34231
lowerneck -19.5742 -2.37849 -3.38029
upperneck 13.8174 -2.39387 0.522103
head 7.50349 -1.27821 0.431574
rclavicle -7.26434e-014 1.35174e-014
rhumerus -40.186 28.4896 -55.1102
rradius 111.296
rwrist -2.52364
rhand -20.7576 7.26339
rfingers 7.12502
rthumb 5.60834 -22.6424
lclavicle -7.26434e-014 1.35174e-014
lhumerus -58.1253 -11.5029 23.0156
lradius 30.5687
lwrist 2.50776
lhand -30.0089 6.45094
lfingers 7.12502
lthumb -3.32604 36.4047
rfemur -3.32905 -12.6119 19.8711
rtibia 91.1798
rfoot 11.1853 -7.79861
rtoes -4.40924
lfemur -50.639 -3.37925 -7.19765
ltibia 34.622
lfoot 5.75269 -1.66628
ltoes -13.1283
116
root 1.48113 22.8137 -3.82448 -192.409 -23.7551 -173.656
lowerback 16.7853 2.55073 4.08419
upperback 1.36786 4.06952 1.93698
thorax -7.79059 1.76086 -1.15515
lowerneck -19.5331 -2.33443 -3.4363
upperneck 13.9579 -2.32132 0.517538
head 7.54248 -1.24888 0.447573
rclavicle 2.1419e-014 9.64106e-015
rhumerus -41.6954 28.2695 -53.7965
rradius 111.193
rwrist -2.62198
rhand -20.4378 7.14558
rfingers 7.12502
rthumb 5.91712 -22.7518
lclavicle 2.1419e-014 9.64106e-015
lhumerus -59.1092 -12.3539 23.7471
lradius 30.6181
lwrist 2.72226
lhand -29.7976 6.35081
lfingers 7.12502
lthumb -3.12198 36.3077
rfemur -4.63712 -13.0941 19.328
rtibia 92.1602
rfoot 10.0455 -7.3982
rtoes -5.09028
lfemur -49.061 -3.92096 -7.23011
ltibia 33.9455
lfoot 6.48574 -1.52429
ltoes -13.4794
117
root 1.27999 22.6837 -4.22285 -192.61 -23.611 -173.823
lowerback 16.7481 2.57863 3.86555
upperback 1.41097 4.06349 1.98556
thorax -7.74269 1.76687 -0.976467
lowerneck -19.4758 -2.29218 -3.50147
upperneck 14.0971 -2.24947 0.51201
head 7.57847 -1.22075 0.464821
rclavicle 1.6722e-014 -2.92213e-014
rhumerus -43.1987 28.0758 -52.4785
rradius 111.041
rwrist -2.73567
rhand -20.1438 6.99567
rfingers 7.12502
rthumb 6.20095 -22.8936
lclavicle 1.6722e-014 -2.92213e-014
lhumerus -60.1108 -13.1817 24.5705
lradius 30.6933
lwrist 2.82544
lhand -29.5172 6.11668
lfingers 7.12502
lthumb -2.85117 36.0774
rfemur -5.96256 -13.5299 18.8837
rtibia 92.8496
rfoot 8.83928 -6.99839
rtoes -6.01872
lfemur -47.4911 -4.47471 -7.23578
ltibia 33.2877
lfoot 7.22713 -1.31177
ltoes -13.9394
118
root 1.07756 22.5414 -4.62174 -192.795 -23.448 -173.984
lowerback 16.6979 2.60657 3.67108
upperback 1.44145 4.06319 2.03659
thorax -7.69961 1.77485 -0.809748
lowerneck -19.4017 -2.2464 -3.56294
upperneck 14.2356 -2.17337 0.498218
head 7.61113 -1.19151 0.479419
rclavicle -1.09337e-014 -3.56818e-014
rhumerus -44.6867 27.9163 -51.1666
rradius 110.837
rwrist -2.87556
rhand -19.8667 6.84985
rfingers 7.12502
rthumb 6.46853 -23.0314
lclavicle -1.09337e-014 -3.56818e-014
lhumerus -61.13 -13.9716 25.4631
lradius 30.7864
lwrist 2.78421
lhand -29.1736 5.77814
lfingers 7.12502
lthumb -2.51941 35.743
rfemur -7.30954 -13.9197 18.5198
rtibia 93.2607
rfoot 7.56042 -6.61051
rtoes -7.14907
lfemur -45.9306 -5.05683 -7.22677
ltibia 32.6529
lfoot 7.96499 -1.00802
ltoes -14.4966
119
root 0.8739 22.3861 -5.02083 -192.967 -23.2734 -174.138
lowerback 16.6271 2.63151 3.49799
upperback 1.46913 4.0629 2.09482
thorax -7.64719 1.78237 -0.646441
lowerneck -19.3136 -2.19672 -3.62438
upperneck 14.3644 -2.09137 0.476478
head 7.63797 -1.16043 0.492252
rclavicle 3.0019e-014 -1.7344e-014
rhumerus -46.1407 27.7987 -49.8573
rradius 110.586
rwrist -3.01571
rhand -19.6199 6.6981
rfingers 7.12502
rthumb 6.70673 -23.1757
lclavicle 3.0019e-014 -1.7344e-014
lhumerus -62.1655 -14.7008 26.4249
lradius 30.8949
lwrist 2.6034
lhand -28.7808 5.37106
lfingers 7.12502
lthumb -2.13997 35.3401
rfemur -8.67777 -14.2732 18.2355
rtibia 93.4051
rfoot 6.21956 -6.23621
rtoes -8.54262
lfemur -44.3812 -5.67295 -7.20854
ltibia 32.0433
lfoot 8.70133 -0.619836
ltoes -15.1638
